<svg width="169" height="47" viewBox="0 0 169 47" fill="none" xmlns="http://www.w3.org/2000/svg">
<rect width="169" height="47" fill="#FF7931"/>
<path d="M36.459 25.1582C36.3926 26.0762 36.0527 26.7988 35.4395 27.3262C34.8301 27.8535 34.0254 28.1172 33.0254 28.1172C31.9316 28.1172 31.0703 27.75 30.4414 27.0156C29.8164 26.2773 29.5039 25.2656 29.5039 23.9805V23.459C29.5039 22.6387 29.6484 21.916 29.9375 21.291C30.2266 20.666 30.6387 20.1875 31.1738 19.8555C31.7129 19.5195 32.3379 19.3516 33.0488 19.3516C34.0332 19.3516 34.8262 19.6152 35.4277 20.1426C36.0293 20.6699 36.377 21.4102 36.4707 22.3633H34.7129C34.6699 21.8125 34.5156 21.4141 34.25 21.168C33.9883 20.918 33.5879 20.793 33.0488 20.793C32.4629 20.793 32.0234 21.0039 31.7305 21.4258C31.4414 21.8438 31.293 22.4941 31.2852 23.377V24.0215C31.2852 24.9434 31.4238 25.6172 31.7012 26.043C31.9824 26.4688 32.4238 26.6816 33.0254 26.6816C33.5684 26.6816 33.9727 26.5586 34.2383 26.3125C34.5078 26.0625 34.6621 25.6777 34.7012 25.1582H36.459ZM41.9102 19.4688L44.1016 25.6562L46.2812 19.4688H48.5898V28H46.8262V25.668L47.002 21.6426L44.6992 28H43.4922L41.1953 21.6484L41.3711 25.668V28H39.6133V19.4688H41.9102ZM59.1328 23.9277C59.1328 24.7676 58.9844 25.5039 58.6875 26.1367C58.3906 26.7695 57.9648 27.2578 57.4102 27.6016C56.8594 27.9453 56.2266 28.1172 55.5117 28.1172C54.8047 28.1172 54.1738 27.9473 53.6191 27.6074C53.0645 27.2676 52.6348 26.7832 52.3301 26.1543C52.0254 25.5215 51.8711 24.7949 51.8672 23.9746V23.5527C51.8672 22.7129 52.0176 21.9746 52.3184 21.3379C52.623 20.6973 53.0508 20.207 53.6016 19.8672C54.1562 19.5234 54.7891 19.3516 55.5 19.3516C56.2109 19.3516 56.8418 19.5234 57.3926 19.8672C57.9473 20.207 58.375 20.6973 58.6758 21.3379C58.9805 21.9746 59.1328 22.7109 59.1328 23.5469V23.9277ZM57.3516 23.541C57.3516 22.6465 57.1914 21.9668 56.8711 21.502C56.5508 21.0371 56.0938 20.8047 55.5 20.8047C54.9102 20.8047 54.4551 21.0352 54.1348 21.4961C53.8145 21.9531 53.6523 22.625 53.6484 23.5117V23.9277C53.6484 24.7988 53.8086 25.4746 54.1289 25.9551C54.4492 26.4355 54.9102 26.6758 55.5117 26.6758C56.1016 26.6758 56.5547 26.4453 56.8711 25.9844C57.1875 25.5195 57.3477 24.8438 57.3516 23.957V23.541ZM68.3281 20.8926H65.7148V28H63.957V20.8926H61.3789V19.4688H68.3281V20.8926ZM73.0938 24.9941V28H71.3359V19.4688H74.6641C75.3047 19.4688 75.8672 19.5859 76.3516 19.8203C76.8398 20.0547 77.2148 20.3887 77.4766 20.8223C77.7383 21.252 77.8691 21.7422 77.8691 22.293C77.8691 23.1289 77.582 23.7891 77.0078 24.2734C76.4375 24.7539 75.6465 24.9941 74.6348 24.9941H73.0938ZM73.0938 23.5703H74.6641C75.1289 23.5703 75.4824 23.4609 75.7246 23.2422C75.9707 23.0234 76.0938 22.7109 76.0938 22.3047C76.0938 21.8867 75.9707 21.5488 75.7246 21.291C75.4785 21.0332 75.1387 20.9004 74.7051 20.8926H73.0938V23.5703ZM86.2148 24.3027H82.8398V26.5879H86.8008V28H81.082V19.4688H86.7891V20.8926H82.8398V22.9258H86.2148V24.3027ZM96.3711 20.8926H93.7578V28H92V20.8926H89.4219V19.4688H96.3711V20.8926ZM101.23 22.5449H102.602C103.605 22.5449 104.4 22.7891 104.986 23.2773C105.576 23.7617 105.871 24.416 105.871 25.2402C105.871 26.0684 105.578 26.7344 104.992 27.2383C104.41 27.7383 103.635 27.9922 102.666 28H99.4609V19.4688H101.23V22.5449ZM101.23 23.9629V26.5879H102.631C103.08 26.5879 103.438 26.4648 103.703 26.2188C103.973 25.9727 104.107 25.6426 104.107 25.2285C104.107 24.8418 103.979 24.5371 103.721 24.3145C103.467 24.0879 103.117 23.9707 102.672 23.9629H101.23Z" fill="white"/>
<path fill-rule="evenodd" clip-rule="evenodd" d="M128 15L126.6 16.4L132.2 22H120V24H132.2L126.6 29.6L128 31L136 23L128 15Z" fill="white"/>
</svg>
